# xmcd
#
# Track frame offsets: 
#        150
#        10280
#        17781
#        32641
#        42512
#        55703
#        68783
#        90653
#        104410
#        116309
#        132594
#        142858
#        156638
#
# Disc length: 2315 seconds
#
# Revision: 0
# Processed by: cddbd v1.5.1PL2 Copyright (c) Steve Scherf et al.
# Submitted via: ExactAudioCopy v0.95b3
#
DISCID=ae09090d
DTITLE=Casey Reid - Cephalclog
DYEAR=2006
DGENRE=Blues
TTITLE0=A Dead Finger's Lame
TTITLE1=Black Kisses
TTITLE2=Instruments of Peace
TTITLE3=Oh, Sweet Beacon
TTITLE4=Paranoia
TTITLE5=Let Us Sing
TTITLE6=I See the Ends
TTITLE7=Rock City
TTITLE8=Fleeting on Foot, Bloodying the Plane
TTITLE9=Into the Woods
TTITLE10=Speaking in Tongues
TTITLE11=Underbelly Limbo
TTITLE12=White
EXTD=
EXTT0=
EXTT1=
EXTT2=
EXTT3=
EXTT4=
EXTT5=
EXTT6=
EXTT7=
EXTT8=
EXTT9=
EXTT10=
EXTT11=
EXTT12=
PLAYORDER=
